#!OML:ASF I:\Actors\actors\Patient Classification 1\Patient 1\Session 1\Subject1.ASF
:FULLY-SPECIFIED
:DEGREES
770
root 0.0650685 17.6562 8.15063 8.38719 -6.71937 -5.83726
lowerback 1.41784 -3.30296 -3.49662
upperback -9.01665 -4.47037 3.30588
thorax -9.84414 -1.75948 5.92615
lowerneck -14.3814 -3.31845 1.33702
upperneck 25.6581 -5.03591 -0.531422
head 10.5509 -2.28514 -1.08698
rclavicle -3.89121e-014 4.4329e-014
rhumerus -0.048994 31.471 -61.1829
rradius 47.9081
rwrist -9.16706
rhand -4.64863 -27.8483
rfingers 7.12502
rthumb 21.131 -56.7168
lclavicle -3.89121e-014 4.4329e-014
lhumerus -17.3738 -31.6715 89.9293
lradius 53.2565
lwrist 27.9646
lhand -25.5797 -19.7595
lfingers 7.12502
lthumb 0.951663 10.2181
rfemur -6.4783 22.5285 19.5469
rtibia 6.11919
rfoot -10.0887 -16.8845
rtoes -4.43835
lfemur 4.9502 -35.052 -18.8389
ltibia -2.15507
lfoot -18.9496 49.3376
ltoes 12.1792
771
root 0.0910547 17.6536 8.1483 8.2965 -6.58923 -5.91107
lowerback 1.35981 -3.16594 -3.73142
upperback -9.05729 -4.31076 3.15559
thorax -9.87165 -1.66659 5.88091
lowerneck -14.3953 -3.48318 1.26199
upperneck 25.6718 -5.29769 -0.359904
head 10.564 -2.39117 -1.04838
rclavicle -5.62561e-014 -4.49253e-014
rhumerus -1.91225 31.4544 -62.2766
rradius 47.8608
rwrist -8.75276
rhand -5.10963 -27.2616
rfingers 7.12502
rthumb 20.6881 -56.179
lclavicle -5.62561e-014 -4.49253e-014
lhumerus -19.2825 -31.022 90.9504
lradius 52.9925
lwrist 26.9296
lhand -26.246 -20.2872
lfingers 7.12502
lthumb 0.308137 9.69227
rfemur -6.34171 22.5828 19.5956
rtibia 6.10553
rfoot -10.1223 -17.0862
rtoes -4.49647
lfemur 4.98243 -34.9229 -18.8517
ltibia -2.11815
lfoot -18.6732 49.108
ltoes 11.9634
772
root 0.117054 17.6511 8.14596 8.15893 -6.48257 -5.95857
lowerback 1.35445 -3.03341 -3.98986
upperback -9.09477 -4.16126 2.99626
thorax -9.92585 -1.57591 5.84399
lowerneck -14.3352 -3.62678 1.12256
upperneck 25.6846 -5.5635 -0.00280427
head 10.5719 -2.48344 -0.932192
rclavicle -3.8763e-015 -1.55052e-014
rhumerus -3.81121 31.1591 -63.5189
rradius 47.934
rwrist -8.96435
rhand -3.09331 -29.3441
rfingers 7.12502
rthumb 22.6244 -58.0382
lclavicle -3.8763e-015 -1.55052e-014
lhumerus -21.1493 -30.3049 91.9204
lradius 52.5764
lwrist 26.2208
lhand -26.6145 -20.8406
lfingers 7.12502
lthumb -0.047733 9.13917
rfemur -6.14814 22.6241 19.6295
rtibia 6.05701
rfoot -10.1453 -17.2549
rtoes -4.38753
lfemur 5.10016 -34.7996 -18.9514
ltibia -2.07892
lfoot -18.4722 48.8683
ltoes 11.8089
773
root 0.142709 17.648 8.14238 8.02324 -6.38276 -6.01126
lowerback 1.37731 -2.89299 -4.22718
upperback -9.12404 -4.00133 2.82993
thorax -9.99144 -1.48173 5.78821
lowerneck -14.2144 -3.77477 0.891284
upperneck 25.5988 -5.83052 0.440321
head 10.5395 -2.57692 -0.767328
rclavicle -1.88845e-015 -5.56597e-015
rhumerus -5.7287 30.5732 -64.8499
rradius 47.7704
rwrist -9.03827
rhand -3.02637 -28.0252
rfingers 7.12502
rthumb 22.6887 -56.7114
lclavicle -1.88845e-015 -5.56597e-015
lhumerus -22.9352 -29.4838 92.8283
lradius 52.0772
lwrist 25.7337
lhand -26.7114 -20.4554
lfingers 7.12502
lthumb -0.141381 9.52428
rfemur -5.9473 22.6524 19.6706
rtibia 5.97046
rfoot -10.1426 -17.3892
rtoes -4.49705
lfemur 5.2385 -34.6826 -19.0401
ltibia -2.09637
lfoot -18.2402 48.6436
ltoes 11.5982
774
root 0.168489 17.6443 8.13828 7.92704 -6.23126 -6.04513
lowerback 1.40669 -2.78732 -4.45851
upperback -9.16112 -3.88763 2.679
thorax -10.0638 -1.40959 5.7501
lowerneck -14.0723 -3.87813 0.967347
upperneck 25.5576 -6.03808 0.603885
head 10.5002 -2.64746 -0.744925
rclavicle -1.05356e-014 1.55052e-014
rhumerus -7.62542 29.9811 -66.262
rradius 47.9957
rwrist -9.03507
rhand -2.87804 -29.021
rfingers 7.12502
rthumb 22.831 -57.6897
lclavicle -1.05356e-014 1.55052e-014
lhumerus -24.6931 -28.4794 93.6471
lradius 51.5499
lwrist 25.3824
lhand -26.7927 -20.01
lfingers 7.12502
lthumb -0.21991 9.9696
rfemur -5.76019 22.7006 19.6794
rtibia 5.83343
rfoot -10.1531 -17.6047
rtoes -4.29368
lfemur 5.3118 -34.6981 -19.1139
ltibia -2.13946
lfoot -18.0604 48.5104
ltoes 11.5866
775
root 0.19285 17.6407 8.1343 7.87316 -6.02446 -6.0291
lowerback 1.36496 -2.72933 -4.76733
upperback -9.18135 -3.83615 2.584
thorax -10.0595 -1.36251 5.81488
lowerneck -13.9534 -3.94632 0.977498
upperneck 25.453 -6.12744 0.596297
head 10.4378 -2.69141 -0.755843
rclavicle -8.94531e-016 9.93923e-015
rhumerus -9.35216 29.3251 -67.5943
rradius 47.9286
rwrist -8.64628
rhand -3.06071 -28.8137
rfingers 7.12502
rthumb 22.6557 -57.5039
lclavicle -8.94531e-016 9.93923e-015
lhumerus -26.2994 -27.2502 94.3789
lradius 50.8814
lwrist 24.8622
lhand -26.8678 -20.3016
lfingers 7.12502
lthumb -0.29242 9.67797
rfemur -5.62149 22.7343 19.6109
rtibia 5.70576
rfoot -10.193 -17.8663
rtoes -3.78733
lfemur 5.3106 -34.8161 -19.2093
ltibia -2.16178
lfoot -17.958 48.4307
ltoes 11.786
776
root 0.216045 17.6379 8.13028 7.8242 -5.84927 -6.06006
lowerback 1.33198 -2.6305 -5.01086
upperback -9.18513 -3.72333 2.50436
thorax -10.0531 -1.29033 5.85441
lowerneck -13.8645 -4.02019 0.847244
upperneck 25.2854 -6.22302 0.724167
head 10.3686 -2.7358 -0.696233
rclavicle 3.05134e-014 -2.18663e-014
rhumerus -11.0193 28.492 -68.8921
rradius 47.7594
rwrist -8.13236
rhand -4.04629 -28.1547
rfingers 7.12502
rthumb 21.7095 -56.9574
lclavicle 3.05134e-014 -2.18663e-014
lhumerus -27.7175 -25.7816 95.0407
lradius 49.9947
lwrist 23.918
lhand -26.9236 -20.615
lfingers 7.12502
lthumb -0.346257 9.36444
rfemur -5.51126 22.8357 19.601
rtibia 5.64675
rfoot -10.2657 -18.1354
rtoes -3.45966
lfemur 5.32361 -34.8539 -19.2491
ltibia -2.18836
lfoot -17.7966 48.3145
ltoes 11.9338
777
root 0.23904 17.6361 8.12694 7.73071 -5.71505 -6.16887
lowerback 1.4071 -2.50236 -5.10648
upperback -9.17911 -3.56779 2.40003
thorax -10.1149 -1.20779 5.78719
lowerneck -13.8032 -4.10646 0.803937
upperneck 25.1318 -6.37138 0.895468
head 10.3092 -2.79073 -0.643688
rclavicle -3.67752e-015 1.03368e-014
rhumerus -12.5689 27.1831 -70.1665
rradius 47.8566
rwrist -8.98144
rhand -3.95188 -29.1805
rfingers 7.12502
rthumb 21.8002 -57.9727
lclavicle -3.67752e-015 1.03368e-014
lhumerus -29.0588 -24.0321 95.5185
lradius 49.0185
lwrist 22.5303
lhand -26.8632 -20.7953
lfingers 7.12502
lthumb -0.287919 9.18422
rfemur -5.36407 22.9015 19.711
rtibia 5.63496
rfoot -10.3151 -18.3374
rtoes -3.51165
lfemur 5.41976 -34.887 -19.2461
ltibia -2.22381
lfoot -17.694 48.2115
ltoes 12.046
778
root 0.260849 17.6353 8.124 7.62519 -5.58837 -6.25188
lowerback 1.48307 -2.42568 -5.23198
upperback -9.15499 -3.48267 2.31259
thorax -10.1448 -1.15841 5.75966
lowerneck -13.6948 -4.14951 0.823111
upperneck 24.918 -6.45036 0.993575
head 10.214 -2.81861 -0.616033
rclavicle -1.71949e-014 1.35174e-014
rhumerus -14.0971 26.2764 -71.5165
rradius 47.716
rwrist -9.28261
rhand -2.63984 -30.9846
rfingers 7.12502
rthumb 23.0596 -59.6249
lclavicle -1.71949e-014 1.35174e-014
lhumerus -30.3749 -22.1455 95.7904
lradius 48.0486
lwrist 20.9249
lhand -26.9208 -21.4368
lfingers 7.12502
lthumb -0.343579 8.54264
rfemur -5.22198 22.9355 19.7938
rtibia 5.64021
rfoot -10.378 -18.5009
rtoes -3.42976
lfemur 5.51331 -34.9139 -19.2781
ltibia -2.23489
lfoot -17.5774 48.1396
ltoes 11.8968
779
root 0.282114 17.634 8.12036 7.58398 -5.43865 -6.27111
lowerback 1.49611 -2.36209 -5.3822
upperback -9.14443 -3.41566 2.20752
thorax -10.15 -1.11774 5.72495
lowerneck -13.5383 -4.18811 0.761442
upperneck 24.5849 -6.50972 1.14496
head 10.0719 -2.84166 -0.550802
rclavicle -1.92821e-014 -2.38542e-015
rhumerus -15.6286 25.4981 -72.8992
rradius 47.4204
rwrist -9.22147
rhand -4.68612 -29.244
rfingers 7.12502
rthumb 21.095 -58.1165
lclavicle -1.92821e-014 -2.38542e-015
lhumerus -31.664 -20.2552 95.9177
lradius 47.0195
lwrist 19.6097
lhand -26.9529 -22.5702
lfingers 7.12502
lthumb -0.374609 7.40926
rfemur -5.17206 22.9878 19.7713
rtibia 5.65021
rfoot -10.3965 -18.7218
rtoes -3.45165
lfemur 5.4681 -34.8421 -19.2908
ltibia -2.23465
lfoot -17.1725 48.0035
ltoes 11.5148
780
root 0.304561 17.6317 8.11759 7.57 -5.26583 -6.26392
lowerback 1.5111 -2.25782 -5.42781
upperback -9.13656 -3.29022 2.05401
thorax -10.1738 -1.05876 5.57405
lowerneck -13.6013 -4.22185 0.68942
upperneck 24.4883 -6.58849 1.35129
head 10.0607 -2.86076 -0.477198
rclavicle 3.20043e-014 -1.82882e-014
rhumerus -17.1463 24.5014 -74.2336
rradius 47.047
rwrist -8.64893
rhand -5.31 -28.522
rfingers 7.12502
rthumb 20.4955 -57.4602
lclavicle 3.20043e-014 -1.82882e-014
lhumerus -32.7887 -18.298 95.9015
lradius 45.8307
lwrist 18.8635
lhand -26.959 -23.0046
lfingers 7.12502
lthumb -0.380484 6.97483
rfemur -5.17156 22.9228 19.6987
rtibia 5.66353
rfoot -10.2795 -18.9233
rtoes -4.19525
lfemur 5.4604 -35.0299 -19.3719
ltibia -2.27657
lfoot -17.0114 48.0173
ltoes 11.7534
781
root 0.328267 17.6296 8.11759 7.518 -5.12727 -6.22257
lowerback 1.50043 -2.15204 -5.46371
upperback -9.07171 -3.1571 1.92291
thorax -10.1172 -1.00051 5.43709
lowerneck -13.6053 -4.25053 0.571957
upperneck 24.1535 -6.60614 1.44976
head 9.94941 -2.87347 -0.420647
rclavicle 1.98785e-016 1.59028e-015
rhumerus -18.4838 23.4112 -75.4441
rradius 46.5739
rwrist -7.47164
rhand -5.19386 -28.1623
rfingers 7.12502
rthumb 20.6071 -57.0884
lclavicle 1.98785e-016 1.59028e-015
lhumerus -33.6963 -16.0015 95.6971
lradius 44.491
lwrist 18.1074
lhand -27.2372 -22.3779
lfingers 7.12502
lthumb -0.649224 7.60082
rfemur -5.11464 22.7966 19.5967
rtibia 5.64851
rfoot -10.1646 -19.0414
rtoes -4.79474
lfemur 5.64443 -35.5152 -19.6487
ltibia -2.36405
lfoot -17.2867 48.2878
ltoes 12.3337
